<?xml version="1.0" encoding="UTF-8"?>
<svg id="Layer_4" data-name="Layer 4" xmlns="http://www.w3.org/2000/svg" viewBox="0 0 1000 1045.63">
  <defs>
    <style>
      .cls-1 {
        font-family: BerlinSansFBDemi-Bold, 'Berlin Sans FB Demi';
        font-size: 589.28px;
        font-weight: 700;
        letter-spacing: .02em;
      }

      .cls-1, .cls-2 {
        fill: #ed1c24;
      }

      .cls-2, .cls-3 {
        stroke-width: 0px;
      }

      .cls-3 {
        fill: #231f20;
      }
    </style>
  </defs>
  <g id="Layer_2" data-name="Layer 2">
    <rect class="cls-3" width="1000" height="1000" rx="134.02" ry="134.02"/>
    <text class="cls-1" transform="translate(678.77 925.07)"><tspan x="0" y="0">1</tspan></text>
  </g>
  <path class="cls-2" d="m555.63,808.5c10.41-15.35-12.56-132.33,4.51-198.09,2.76-10.64,4.69-22.53,14.7-32.16,31.85-30.63,42.39-21.81,60.34-57.2,22.05-43.49,18.94-109.94-3.77-141.76-8.65-12.12-39.09-31.72-96.52-40.91-42.14-6.74-82.32,4.84-96.7,23.35-18.66,24.02-23.95,78.04,1.04,92.3,16.11,9.19,38.82,7.37,51.45,8.34,11.9.92,25.42,3.76,25.55,9.48.33,14.58-72.14,13.96-89.52,3.03-5.45-3.43-14.71-11.56-21.88-14.67-12.14-5.27-39.05-3.06-55.9,1.08-15.2,3.73-60.27,6.11-64.44-3.85-3.34-7.98,75.06-17.67,96.17-31.87,29.56-19.89,5.21-53.46,32.77-82.53,31.27-32.98,90.37-32.09,121.48-30.41,63.6,3.45,79.01,29.57,112.88,15.74,23.92-9.76,29.64-82.22,15.27-134.66-27.53-100.45-162.16-112.7-253.61-109.04-110.14,4.41-258.81,31.82-317.32,188.28-57.96,154.98,79.28,288.81,148.25,321.25,12.8,6.02,23.75,19.49,23.07,37.5-3.39,89.73-6.75,164.93,13.95,180.6,13.95,10.56,261.93,20.29,278.25-3.77Z"/>
</svg>