<?xml version="1.0" encoding="UTF-8"?>
<svg id="Layer_4" data-name="Layer 4" xmlns="http://www.w3.org/2000/svg" viewBox="0 0 1000 1000">
  <defs>
    <style>
      .cls-1 {
        font-family: BerlinSansFBDemi-Bold, 'Berlin Sans FB Demi';
        font-size: 655px;
        font-weight: 700;
        letter-spacing: .02em;
      }

      .cls-1, .cls-2, .cls-3, .cls-4 {
        fill: #fee800;
      }

      .cls-2 {
        stroke: #fff;
        stroke-width: .25px;
      }

      .cls-2, .cls-3 {
        stroke-miterlimit: 10;
      }

      .cls-5 {
        fill: #231f20;
      }

      .cls-5, .cls-4 {
        stroke-width: 0px;
      }

      .cls-3 {
        stroke: #231f20;
        stroke-width: 30px;
      }
    </style>
  </defs>
  <g id="Layer_2" data-name="Layer 2">
    <rect class="cls-5" width="1000" height="1000" rx="134.02" ry="134.02"/>
  </g>
  <ellipse class="cls-2" cx="506.9" cy="357.02" rx="274.34" ry="176.93" transform="translate(-86.03 538.25) rotate(-52.15)"/>
  <path id="Handle" class="cls-4" d="m386.42,553.28c-7.66,4.16-43.56,12.7-77.99,48.82-69.5,72.89-102.12,119.79-127.56,217.98-18.64,71.95-76.7,127.05-108.17,114.88-25.11-9.71-33.48-78.66-16.23-127.76,30.86-87.84,91.14-130.36,131.13-207.02,17.55-33.65,25.57-72.39,19.09-125.81-.88-7.29,20.26-14.48,21.02-23.31"/>
  <ellipse class="cls-4" cx="446.44" cy="299.12" rx="318.5" ry="185.19" transform="translate(-63.68 468.13) rotate(-52.15)"/>
  <ellipse id="White_ellipse" data-name="White ellipse" class="cls-3" cx="500.42" cy="346.54" rx="239.58" ry="147.36" transform="translate(-80.26 529.09) rotate(-52.15)"/>
  <text class="cls-1" transform="translate(626.07 923.29)"><tspan x="0" y="0">3</tspan></text>
  <path class="cls-4" d="m289.23,549.74c-.02-1.61,24.23,7.61,22.38,14.28-1.34,4.85,5.59,10.28,5.5,11.35-.04.5,7.41,4,14.45,6.25,6.82,2.17,43.12,13.34,58.32,14.89,52.45,5.35,70.73-11.87,70.73-11.87,68.41-16.26,116.37-65.33,145.77-95.41,26.26-26.87,73.19-76,98.06-156.37,7.44-24.03,23.07-64.44,15.61-117.06-5.89-41.52-24.44-94.09-51.79-138.72-.81-1.32-112.8-26.38-115.77-24.71-13.71,7.72-.84,51.13,54,70.34,12.92,4.53,21.09,14.47,26.98,23.89,53.43,85.49,5.38,214.85-2.36,229.55-46.66,88.7-123.8,127.95-174.48,150.63-74.23,33.22-158.44,41.15-165.84,28.33-.83-1.44-1.55-3.97-1.57-5.36Z"/>
  <path class="cls-4" d="m276.72,579.19c55.36,4.12,87.37-8.38,98.8-3.39,15.26,6.67,40.06,24.06,31.68,23.15-16.19-1.77-151.52,53.09-174.25,94.9-9.85,18.12,13.17-116.94,43.78-114.66Z"/>
</svg>