<svg width="270" height="146" viewBox="0 0 270 146" fill="none" xmlns="http://www.w3.org/2000/svg">
<g clip-path="url(#clip0_3_26)">
<path d="M44.1172 12.9766L44.8594 13.2891C49.1562 15.0859 51.5651 18.4974 52.0859 23.5234C52.6068 28.5234 52.3464 32.4036 51.3047 35.1641L51.1875 35.4375C50.25 37.9896 48.2708 39.6562 45.25 40.4375L45.2109 40.5938L45.4453 40.6719C48.2839 41.7396 49.9896 45.724 50.5625 52.625C51.2135 56.6615 51.6432 63.5104 51.8516 73.1719C52.0859 75.9062 52.138 77.4297 52.0078 77.7422C47.112 77.5599 43.974 77.4036 42.5938 77.2734C42.75 62.1953 42.0339 53.1458 40.4453 50.125C39.4557 48.9792 38.5182 48.237 37.6328 47.8984C36.2526 47.3776 33.7266 47.1562 30.0547 47.2344C30.4193 54.9948 30.6016 61.3099 30.6016 66.1797C25.5755 66.6224 22.4115 66.7917 21.1094 66.6875C21.2396 63.8229 21.1615 54.3958 20.875 38.4062C20.5885 22.4167 20.6927 13.7839 21.1875 12.5078C33.2188 11.6484 40.862 11.8047 44.1172 12.9766ZM30.5234 20.5156C30.6536 24.7865 30.9401 30.1771 31.3828 36.6875L31.6172 36.9219C35.888 37.4427 38.5964 37.1953 39.7422 36.1797C39.7682 36.1016 40.0026 35.7109 40.4453 35.0078C41.8516 26.3359 40.9531 21.401 37.75 20.2031L37.5156 20.0859C35.3021 19.5391 32.9714 19.6823 30.5234 20.5156ZM84.3516 12.1953C84.2214 17.5339 84.2604 21.7005 84.4688 24.6953C79.9896 24.7214 74.4557 24.9557 67.8672 25.3984C67.9974 31.4661 68.1276 35.0859 68.2578 36.2578C73.1536 35.8932 77.9323 35.9714 82.5938 36.4922C83.2708 36.5182 84.026 36.5182 84.8594 36.4922C84.9635 36.987 84.9505 39.3177 84.8203 43.4844C84.5078 43.849 82.0599 43.9922 77.4766 43.9141C70.5234 44.4349 66.4609 44.8255 65.2891 45.0859C64.9245 49.7474 64.8333 54.0052 65.0156 57.8594H76.1484C79.3516 57.625 82.724 57.599 86.2656 57.7812C86.2656 59.3698 85.9531 62.1693 85.3281 66.1797C81.6302 66.2578 72.125 66.6875 56.8125 67.4688C56.9167 48.3021 56.8776 34.5911 56.6953 26.3359L56.1094 12.8203L56.1484 12.7422C58.9609 12.5339 65.4062 12.3516 75.4844 12.1953C80.5365 11.8828 83.4922 11.8828 84.3516 12.1953ZM111.969 12.2734C115.094 13.4193 116.982 14.7995 117.633 16.4141C118.805 18.6797 119.352 20.4115 119.273 21.6094C119.534 23.901 119.703 27.5859 119.781 32.6641C117.828 32.7943 114.326 32.8984 109.273 32.9766C109.091 31.1016 108.948 28.224 108.844 24.3438C108.896 22.1302 108.102 20.724 106.461 20.125L106.188 20.0469C104.312 19.3698 102.203 19.3958 99.8594 20.125C99.1823 20.5677 98.7917 20.9453 98.6875 21.2578L98.5703 21.5703C97.8151 23.7318 97.75 27.1172 98.375 31.7266C98.7656 33.263 99.8594 34.3568 101.656 35.0078L102.32 35.2422C107.398 36.7526 110.549 37.7292 111.773 38.1719C116.409 39.8385 118.857 42.2214 119.117 45.3203C119.69 48.862 119.807 53.6667 119.469 59.7344C119.286 60.5417 119.156 61.0755 119.078 61.3359C118.062 64.1484 115.224 66.1146 110.562 67.2344C105.302 68.0156 100.849 67.7422 97.2031 66.4141C93.2448 64.9818 91.0833 61.974 90.7188 57.3906C90.25 53.224 90.0938 50.9193 90.25 50.4766C94.8073 50.3984 97.3854 50.3984 97.9844 50.4766L98.0625 50.5156C97.8802 55.776 98.4922 58.6667 99.8984 59.1875C100.107 59.4479 100.523 59.6953 101.148 59.9297C102.659 60.4766 104.859 60.4766 107.75 59.9297C109.156 59.3568 110.107 58.3932 110.602 57.0391C111.487 54.6172 111.318 52.1042 110.094 49.5C109.208 48.0938 107.854 47.0651 106.031 46.4141L105.602 46.2578C104.247 45.763 101.214 45.112 96.5 44.3047L95.9141 44.1094C92.2943 42.8073 90.0286 39.1875 89.1172 33.25C88.7786 31.6875 88.8568 28.4714 89.3516 23.6016C89.5078 22.2995 89.7812 21.1016 90.1719 20.0078L90.4062 19.3828C92.4115 13.862 97.75 11.1536 106.422 11.2578C108.271 11.2839 110.12 11.6224 111.969 12.2734ZM158.336 11.5703L158.258 19.2266C157.997 19.3307 156.096 19.3828 152.555 19.3828L144.469 19.7734C144.208 35.8151 144.352 51.5573 144.898 67C143.076 67.2083 140.458 67.2865 137.047 67.2344C137.021 67.2865 136.396 67.3255 135.172 67.3516C134.99 65.4245 134.951 62.5078 135.055 58.6016C135.263 51.5443 135.107 43.9141 134.586 35.7109L134.195 22.9766C133.831 22.8464 129.781 22.7422 122.047 22.6641L121.969 22.625C121.969 19.3958 121.878 16.1536 121.695 12.8984C122.529 12.6901 125.589 12.599 130.875 12.625C137.828 12.4948 146.982 12.1432 158.336 11.5703ZM171.656 12.1953C172.906 15.5026 175.432 23.3932 179.234 35.8672C180.016 37.638 181.956 43.4323 185.055 53.25C185.654 55.5417 187.255 60.75 189.859 68.875C185.51 69.9427 182.242 70.6198 180.055 70.9062C176.487 60.8542 174.273 54.9557 173.414 53.2109C169.794 53.1849 166.448 53.276 163.375 53.4844C161.812 60.099 160.797 64.5521 160.328 66.8438L151.109 66.375C151.865 60.9323 155.159 45.9453 160.992 21.4141L162.555 14.0703L162.711 13.5234C164.638 13.1328 167.62 12.6901 171.656 12.1953ZM167.828 28.6406C167.333 30.2552 166.083 36.0365 164.078 45.9844C168.974 46.0625 171.852 46.0625 172.711 45.9844C171.383 40.0729 169.755 34.2917 167.828 28.6406ZM214.273 12.9766L215.016 13.2891C219.312 15.0859 221.721 18.4974 222.242 23.5234C222.763 28.5234 222.503 32.4036 221.461 35.1641L221.344 35.4375C220.406 37.9896 218.427 39.6562 215.406 40.4375L215.367 40.5938L215.602 40.6719C218.44 41.7396 220.146 45.724 220.719 52.625C221.37 56.6615 221.799 61.0365 222.008 65.75C222.242 68.4844 222.294 70.0078 222.164 70.3203C217.268 70.138 214.13 69.9818 212.75 69.8516C212.906 59.7214 212.19 53.1458 210.602 50.125C209.612 48.9792 208.674 48.237 207.789 47.8984C206.409 47.3776 203.883 47.1562 200.211 47.2344C200.576 54.9948 200.758 61.3099 200.758 66.1797C195.732 66.6224 192.568 66.7917 191.266 66.6875C191.396 63.8229 191.318 54.3958 191.031 38.4062C190.745 22.4167 190.849 13.7839 191.344 12.5078C203.375 11.6484 211.018 11.8047 214.273 12.9766ZM200.68 20.5156C200.81 24.7865 201.096 30.1771 201.539 36.6875L201.773 36.9219C206.044 37.4427 208.753 37.1953 209.898 36.1797C209.924 36.1016 210.159 35.7109 210.602 35.0078C212.008 26.3359 211.109 21.401 207.906 20.2031L207.672 20.0859C205.458 19.5391 203.128 19.6823 200.68 20.5156ZM261.227 11.5703L261.148 19.2266C260.888 19.3307 258.987 19.3828 255.445 19.3828L247.359 19.7734C247.099 35.8151 247.242 51.5573 247.789 67C245.966 67.2083 243.349 67.2865 239.938 67.2344C239.911 67.2865 239.286 67.3255 238.062 67.3516C237.88 65.4245 237.841 62.5078 237.945 58.6016C238.154 51.5443 237.997 43.9141 237.477 35.7109L237.086 22.9766C236.721 22.8464 232.672 22.7422 224.938 22.6641L224.859 22.625C224.859 19.3958 224.768 16.1536 224.586 12.8984C225.419 12.6901 228.479 12.599 233.766 12.625C240.719 12.4948 249.872 12.1432 261.227 11.5703Z" fill="#4ABAEB"/>
<path d="M97.6439 77.9766L98.386 78.2891C102.683 80.0859 105.092 83.4974 105.613 88.5234C106.133 93.5234 105.873 97.4036 104.831 100.164L104.714 100.438C103.777 102.99 101.798 104.656 98.7767 105.438L98.7376 105.594L98.972 105.672C101.811 106.74 103.516 110.724 104.089 117.625C104.74 121.661 105.17 128.51 105.378 138.172C105.613 140.906 105.665 142.43 105.534 142.742C100.639 142.56 97.5006 142.404 96.1204 142.273C96.2767 127.195 95.5605 118.146 93.972 115.125C92.9824 113.979 92.0449 113.237 91.1595 112.898C89.7793 112.378 87.2532 112.156 83.5814 112.234C83.9459 119.995 84.1282 126.31 84.1282 131.18C79.1022 131.622 75.9381 131.792 74.636 131.688C74.7663 128.823 74.6881 119.396 74.4017 103.406C74.1152 87.4167 74.2194 78.7839 74.7142 77.5078C86.7454 76.6484 94.3887 76.8047 97.6439 77.9766ZM84.0501 85.5156C84.1803 89.7865 84.4668 95.1771 84.9095 101.688L85.1439 101.922C89.4147 102.443 92.123 102.195 93.2689 101.18C93.2949 101.102 93.5293 100.711 93.972 100.008C95.3782 91.3359 94.4798 86.401 91.2767 85.2031L91.0423 85.0859C88.8288 84.5391 86.498 84.6823 84.0501 85.5156ZM133.659 78.8359C137.852 80.3203 140.183 83.7578 140.652 89.1484C141.667 94.5651 142.006 103.367 141.667 115.555C141.303 119.461 140.808 122.312 140.183 124.109C138.49 128.875 134.324 131.349 127.683 131.531C122.891 131.714 119.324 131.388 116.98 130.555C113.152 129.201 110.691 125.984 109.597 120.906C108.686 117.547 108.139 112.898 107.956 106.961C107.826 97.2474 108.308 90.8802 109.402 87.8594L109.831 86.6484C110.873 83.7057 113.1 81.1797 116.511 79.0703C120.235 77.5599 124.115 77.0911 128.152 77.6641C129.818 77.7422 131.654 78.1328 133.659 78.8359ZM120.456 89.9297L120.183 90.7109C119.115 93.6797 119.011 101.609 119.87 114.5C120.365 118.849 121.042 121.271 121.902 121.766C122.501 122.443 123.23 122.938 124.089 123.25C126.407 124.057 128.777 123.888 131.199 122.742C132.24 121.857 132.904 120.984 133.191 120.125C134.102 117.573 134.141 109.07 133.308 94.6172C132.995 90.9193 132.201 88.849 130.925 88.4062C130.951 88.3542 130.795 88.263 130.456 88.1328L130.027 87.9766C124.48 86.9089 121.29 87.5599 120.456 89.9297ZM178.347 76.1016C179.258 87.9766 179.532 100.672 179.167 114.188C179.141 118.719 178.699 122.247 177.839 124.773L177.644 125.281C175.587 131.349 169.167 133.576 158.386 131.961C156.902 131.701 155.704 131.414 154.792 131.102C149.636 129.357 147.162 124.122 147.37 115.398C147.266 113.315 147.162 107.052 147.058 96.6094C146.563 89.8385 146.238 83.849 146.081 78.6406H157.331C157.409 78.9531 157.423 80.8151 157.37 84.2266C157.943 93.9141 158.321 104.135 158.503 114.891C158.712 118.458 159.18 120.724 159.909 121.688C160.534 122.156 160.886 122.404 160.964 122.43C163.256 123.185 165.808 123.237 168.62 122.586C169.87 122.013 170.613 121.401 170.847 120.75L171.081 120.008C172.149 116.831 172.423 111.349 171.902 103.562C171.719 92.2344 171.511 84.0182 171.277 78.9141L170.925 76.375C172.227 76.0625 174.701 75.9714 178.347 76.1016ZM212.878 77.1953C213.087 84.4089 213.217 92.4948 213.269 101.453C213.399 104.24 213.477 110.841 213.503 121.258C213.607 122.898 213.764 127.846 213.972 136.102C212.878 136.362 209.923 136.323 205.105 135.984L205.027 135.945C204.454 134.565 203.165 131.727 201.159 127.43C199.18 123.107 195.391 114.044 189.792 100.242V100.32C189.923 109.591 189.818 119.956 189.48 131.414C187.24 131.727 184.923 131.857 182.527 131.805C182.865 114.487 182.722 97.5469 182.097 80.9844L182.214 80.4375C184.558 80.3073 187.266 80.2943 190.339 80.3984L190.417 80.4375C192.032 84.1875 194.363 90.0729 197.409 98.0938C199.831 103.797 201.524 107.443 202.488 109.031L202.527 108.953C202.501 107.26 202.253 101.375 201.784 91.2969C201.758 88.5885 201.615 83.9661 201.355 77.4297L201.433 77.2734C203.282 77.1953 207.097 77.1693 212.878 77.1953ZM239.909 76.6094L241.159 77.0391C245.3 78.3411 248.581 81.9219 251.003 87.7812C252.436 92.2344 253.217 97.5469 253.347 103.719C253.555 110.047 253.087 114.982 251.941 118.523C249.102 127.456 242.722 131.818 232.8 131.609L221.042 131.688C220.183 117.573 219.232 100.385 218.191 80.125C217.93 78.0156 217.852 76.7917 217.956 76.4531C230.066 75.8281 236.915 75.763 238.503 76.2578C238.79 76.2839 239.258 76.401 239.909 76.6094ZM226.902 84.6172L228.464 120.984C231.146 121.297 233.542 121.219 235.652 120.75C238.62 120.125 240.574 118.341 241.511 115.398C242.37 112.69 242.514 106.141 241.941 95.75C241.472 89.2917 239.493 85.5156 236.003 84.4219C234.545 83.9531 231.511 84.0182 226.902 84.6172Z" fill="#4ABAEB"/>
<path d="M55.451 86L21.5 85C16.9134 85 16 89.5225 16 93.8677V124.132C16 128.477 20.4134 130.5 25 130.5H55.451C60.0376 130.5 63.7557 128.477 63.7557 124.132V93.8677C63.7557 89.5225 60.0376 86 55.451 86Z" stroke="#EF4443" stroke-width="5" stroke-miterlimit="10"/>
<path d="M52.1724 102.878C55.0755 102.878 57.429 100.717 57.429 98.0519C57.429 95.3866 55.0755 93.226 52.1724 93.226C49.2694 93.226 46.9159 95.3866 46.9159 98.0519C46.9159 100.717 49.2694 102.878 52.1724 102.878Z" fill="#EF4443"/>
<path d="M28.3691 124.646C31.2722 124.646 33.6256 122.485 33.6256 119.82C33.6256 117.154 31.2722 114.994 28.3691 114.994C25.466 114.994 23.1126 117.154 23.1126 119.82C23.1126 122.485 25.466 124.646 28.3691 124.646Z" fill="#EF4443"/>
<path d="M39.8711 113.993C42.7742 113.993 45.1276 111.832 45.1276 109.167C45.1276 106.502 42.7742 104.341 39.8711 104.341C36.968 104.341 34.6146 106.502 34.6146 109.167C34.6146 111.832 36.968 113.993 39.8711 113.993Z" fill="#EF4443"/>
<path d="M32.3193 15L16 15.9663L17.0612 28.1958L33.3805 27.2294L32.3193 15Z" fill="#FFF7EE"/>
<path d="M51.6174 10.2707L31 11.4916L32.8089 32.3383L53.4263 31.1175L51.6174 10.2707Z" fill="#FFF7EE"/>
<path d="M16.5662 38.7111C29.8701 38.9133 31.3451 39.2615 37.5889 38.6774C42.4006 38.2281 48 34.0159 48 27.0741C48 15.5607 36.1998 12 26.4904 12C18.2131 12 12.2843 13.7635 7 16.4481" stroke="#4ABAEB" stroke-width="11" stroke-miterlimit="10"/>
<path d="M19 24L5.18496 6L3 21.8389L19 24Z" fill="#4ABAEB"/>
</g>
<defs>
<clipPath id="clip0_3_26">
<rect width="270" height="146" fill="white"/>
</clipPath>
</defs>
</svg>
