<?xml version="1.0" encoding="UTF-8"?>
<svg id="Layer_1" data-name="Layer 1" xmlns="http://www.w3.org/2000/svg" xmlns:xlink="http://www.w3.org/1999/xlink" viewBox="0 0 270 146">
  <defs>
    <style>
      .cls-1 {
        clip-path: url(#clippath);
      }

      .cls-2, .cls-3, .cls-4 {
        fill: none;
      }

      .cls-2, .cls-5, .cls-6 {
        stroke-width: 0px;
      }

      .cls-3 {
        stroke: #ef4443;
        stroke-width: 5px;
      }

      .cls-3, .cls-4 {
        stroke-miterlimit: 10;
      }

      .cls-4 {
        stroke: #4abaeb;
        stroke-width: 11px;
      }

      .cls-5 {
        fill: #4abaeb;
      }

      .cls-6 {
        fill: #ef4443;
      }
    </style>
    <clipPath id="clippath">
      <rect class="cls-2" width="270" height="146"/>
    </clipPath>
  </defs>
  <g class="cls-1">
    <g>
      <path class="cls-3" d="M55.45,86l-33.95-1c-4.59,0-5.5,4.52-5.5,8.87v30.26c0,4.35,4.41,6.37,9,6.37h30.45c4.59,0,8.3-2.02,8.3-6.37v-30.26c0-4.35-3.72-7.87-8.3-7.87Z"/>
      <path class="cls-6" d="M52.17,102.88c2.9,0,5.26-2.16,5.26-4.83s-2.35-4.83-5.26-4.83-5.26,2.16-5.26,4.83,2.35,4.83,5.26,4.83Z"/>
      <path class="cls-6" d="M28.37,124.65c2.9,0,5.26-2.16,5.26-4.83s-2.35-4.83-5.26-4.83-5.26,2.16-5.26,4.83,2.35,4.83,5.26,4.83Z"/>
      <path class="cls-6" d="M39.87,113.99c2.9,0,5.26-2.16,5.26-4.83s-2.35-4.83-5.26-4.83-5.26,2.16-5.26,4.83,2.35,4.83,5.26,4.83Z"/>
      <path class="cls-5" d="M97.64,77.98l.74.31c4.3,1.8,6.71,5.21,7.23,10.23.52,5,.26,8.88-.78,11.64l-.12.27c-.94,2.55-2.92,4.22-5.94,5l-.04.16.23.08c2.84,1.07,4.54,5.05,5.12,11.95.65,4.04,1.08,10.88,1.29,20.55.24,2.73.29,4.26.16,4.57-4.89-.18-8.03-.34-9.41-.47.16-15.08-.56-24.13-2.15-27.15-.99-1.15-1.93-1.89-2.81-2.23-1.38-.52-3.91-.74-7.58-.66.36,7.76.55,14.08.55,18.95-5.03.44-8.19.61-9.49.51.13-2.87.05-12.29-.23-28.28-.29-15.99-.18-24.62.31-25.9,12.03-.86,19.67-.7,22.93.47ZM84.05,85.52c.13,4.27.42,9.66.86,16.17l.23.23c4.27.52,6.98.27,8.12-.74.03-.08.26-.47.7-1.17,1.41-8.67.51-13.61-2.7-14.8l-.23-.12c-2.21-.55-4.54-.4-6.99.43ZM133.66,78.84c4.19,1.48,6.52,4.92,6.99,10.31,1.02,5.42,1.35,14.22,1.02,26.41-.36,3.91-.86,6.76-1.48,8.55-1.69,4.77-5.86,7.24-12.5,7.42-4.79.18-8.36-.14-10.7-.98-3.83-1.35-6.29-4.57-7.38-9.65-.91-3.36-1.46-8.01-1.64-13.94-.13-9.71.35-16.08,1.45-19.1l.43-1.21c1.04-2.94,3.27-5.47,6.68-7.58,3.72-1.51,7.6-1.98,11.64-1.41,1.67.08,3.5.47,5.51,1.17ZM120.46,89.93l-.27.78c-1.07,2.97-1.17,10.9-.31,23.79.49,4.35,1.17,6.77,2.03,7.27.6.68,1.33,1.17,2.19,1.48,2.32.81,4.69.64,7.11-.51,1.04-.88,1.71-1.76,1.99-2.62.91-2.55.95-11.06.12-25.51-.31-3.7-1.11-5.77-2.38-6.21.03-.05-.13-.14-.47-.27l-.43-.16c-5.55-1.07-8.74-.42-9.57,1.95ZM178.35,76.1c.91,11.88,1.18,24.57.82,38.09-.03,4.53-.47,8.06-1.33,10.58l-.2.51c-2.06,6.07-8.48,8.3-19.26,6.68-1.48-.26-2.68-.55-3.59-.86-5.16-1.75-7.63-6.98-7.42-15.7-.1-2.08-.21-8.35-.31-18.79-.49-6.77-.82-12.76-.98-17.97h11.25c.08.31.09,2.17.04,5.59.57,9.69.95,19.91,1.13,30.66.21,3.57.68,5.83,1.41,6.8.62.47.98.72,1.06.74,2.29.75,4.84.81,7.66.16,1.25-.57,1.99-1.18,2.23-1.84l.23-.74c1.07-3.18,1.34-8.66.82-16.45-.18-11.33-.39-19.54-.62-24.65l-.35-2.54c1.3-.31,3.78-.4,7.42-.27ZM212.88,77.2c.21,7.21.34,15.3.39,24.26.13,2.79.21,9.39.23,19.81.1,1.64.26,6.59.47,14.84-1.09.26-4.05.22-8.87-.12l-.08-.04c-.57-1.38-1.86-4.22-3.87-8.52-1.98-4.32-5.77-13.39-11.37-27.19v.08c.13,9.27.03,19.64-.31,31.09-2.24.31-4.56.44-6.95.39.34-17.32.2-34.26-.43-50.82l.12-.55c2.34-.13,5.05-.14,8.12-.04l.08.04c1.61,3.75,3.95,9.64,6.99,17.66,2.42,5.7,4.12,9.35,5.08,10.94l.04-.08c-.03-1.69-.27-7.58-.74-17.66-.03-2.71-.17-7.33-.43-13.87l.08-.16c1.85-.08,5.66-.1,11.45-.08ZM239.91,76.61l1.25.43c4.14,1.3,7.42,4.88,9.84,10.74,1.43,4.45,2.21,9.77,2.34,15.94.21,6.33-.26,11.26-1.41,14.8-2.84,8.93-9.22,13.29-19.14,13.09l-11.76.08c-.86-14.12-1.81-31.3-2.85-51.56-.26-2.11-.34-3.33-.24-3.67,12.11-.62,18.96-.69,20.55-.2.29.03.75.14,1.41.35ZM226.9,84.62l1.56,36.37c2.68.31,5.08.24,7.19-.23,2.97-.62,4.92-2.41,5.86-5.35.86-2.71,1-9.26.43-19.65-.47-6.46-2.45-10.23-5.94-11.33-1.46-.47-4.49-.4-9.1.2Z"/>
      <g>
        <path class="cls-5" d="M76.15,57.86h-11.13c-.18-3.85-.09-8.11.27-12.77,1.17-.26,5.23-.65,12.19-1.17,4.58.08,7.03-.07,7.34-.43.13-4.17.14-6.5.04-6.99-.83.03-1.59.03-2.27,0-4.66-.52-9.44-.6-14.34-.23-.13-1.17-.26-4.79-.39-10.86,6.59-.44,12.12-.68,16.6-.7-.21-2.99-.25-7.16-.12-12.5-.86-.31-3.82-.31-8.87,0-10.08.16-16.52.34-19.34.55l-.04.08.59,13.52c.18,8.26.22,21.97.12,41.13,15.31-.78,24.82-1.21,28.52-1.29.62-4.01.94-6.81.94-8.4-3.54-.18-6.91-.16-10.12.08Z"/>
        <path class="cls-5" d="M50.56,52.62c-.57-6.9-2.28-10.89-5.12-11.95l-.23-.08.04-.16c3.02-.78,5-2.45,5.94-5l.12-.27c.43-1.13.72-2.46.88-3.97l-11.31.67c-.1.99-.25,2.04-.43,3.15-.44.7-.68,1.09-.7,1.17-1.15,1.02-3.85,1.26-8.12.74l-.23-.23c-.23-3.41-.42-6.51-.57-9.31l-10.08.6c.02,3.04.07,6.51.14,10.43.29,15.99.36,25.42.23,28.28,1.3.1,4.47-.07,9.49-.51,0-4.87-.18-11.18-.55-18.95,3.67-.08,6.2.14,7.58.66.89.34,1.82,1.08,2.81,2.23,1.59,3.02,2.3,12.07,2.15,27.15,1.38.13,4.52.29,9.41.47.13-.31.08-1.84-.16-4.57-.21-9.66-.64-16.51-1.29-20.55Z"/>
        <path class="cls-5" d="M31.31,15.06l-.27-3.06c-2.87.07-6.15.24-9.86.5-.15.38-.26,1.45-.34,3.17l10.46-.62Z"/>
        <path class="cls-5" d="M98.69,21.26c.1-.31.49-.69,1.17-1.13,2.34-.73,4.45-.76,6.33-.08l.27.08c1.64.6,2.43,2.01,2.38,4.22.1,3.88.25,6.76.43,8.63,5.05-.08,8.55-.18,10.51-.31-.08-5.08-.25-8.76-.51-11.05.08-1.2-.47-2.93-1.64-5.2-.65-1.61-2.54-2.99-5.66-4.14-1.85-.65-3.7-.99-5.55-1.02-8.67-.1-14.01,2.6-16.02,8.12l-.23.62c-.39,1.09-.66,2.29-.82,3.59-.49,4.87-.57,8.09-.23,9.65.91,5.94,3.18,9.56,6.8,10.86l.59.2c4.71.81,7.75,1.46,9.1,1.95l.43.16c1.82.65,3.18,1.68,4.06,3.09,1.22,2.6,1.39,5.12.51,7.54-.49,1.35-1.45,2.32-2.85,2.89-2.89.55-5.09.55-6.6,0-.62-.23-1.04-.48-1.25-.74-1.41-.52-2.02-3.41-1.84-8.67l-.08-.04c-.6-.08-3.18-.08-7.73,0-.16.44,0,2.75.47,6.91.36,4.58,2.53,7.59,6.48,9.02,3.65,1.33,8.1,1.6,13.36.82,4.66-1.12,7.5-3.09,8.52-5.9.08-.26.21-.79.39-1.6.34-6.07.22-10.87-.35-14.41-.26-3.1-2.71-5.48-7.34-7.15-1.22-.44-4.38-1.42-9.45-2.93l-.66-.23c-1.8-.65-2.89-1.74-3.28-3.28-.62-4.61-.56-7.99.2-10.16l.12-.31Z"/>
        <path class="cls-5" d="M144.47,19.77l8.09-.39c3.54,0,5.44-.05,5.7-.16l.08-7.66c-11.35.57-20.51.92-27.46,1.05-5.29-.03-8.35.07-9.18.27.18,3.26.27,6.5.27,9.73l.08.04c7.73.08,11.78.18,12.15.31l.39,12.73c.52,8.2.68,15.83.47,22.89-.1,3.91-.07,6.82.12,8.75,1.22-.03,1.85-.07,1.88-.12,3.41.05,6.03-.03,7.85-.23-.55-15.44-.69-31.18-.43-47.23Z"/>
        <path class="cls-5" d="M179.23,35.87c-3.8-12.47-6.33-20.36-7.58-23.67-4.04.49-7.02.94-8.95,1.33l-.16.55-1.56,7.34c-5.83,24.53-9.13,39.52-9.88,44.96l9.22.47c.47-2.29,1.48-6.74,3.05-13.36,3.07-.21,6.42-.3,10.04-.27.86,1.74,3.07,7.64,6.64,17.7,2.19-.29,5.46-.96,9.8-2.03-2.6-8.12-4.21-13.33-4.8-15.62-3.1-9.82-5.04-15.61-5.82-17.38ZM164.08,45.98c2.01-9.95,3.26-15.73,3.75-17.34,1.93,5.65,3.55,11.43,4.88,17.34-.86.08-3.74.08-8.63,0Z"/>
        <path class="cls-5" d="M233.77,12.62c-5.29-.03-8.35.07-9.18.27.18,3.26.27,6.5.27,9.73l.08.04c7.73.08,11.78.18,12.15.31l.39,12.73c.52,8.2.68,15.83.47,22.89-.1,3.91-.07,6.82.12,8.75,1.22-.03,1.85-.07,1.88-.12,3.41.05,6.03-.03,7.85-.23-.55-15.44-.69-31.18-.43-47.23l8.09-.39c3.54,0,5.44-.05,5.7-.16l.08-7.66c-11.35.57-20.51.92-27.46,1.05Z"/>
        <path class="cls-5" d="M221.34,35.44l.12-.27c1.04-2.76,1.3-6.64.78-11.64-.52-5.03-2.93-8.44-7.23-10.23l-.74-.31c-3.26-1.17-10.9-1.33-22.93-.47-.49,1.28-.6,9.91-.31,25.9.29,15.99.36,25.42.23,28.28,1.3.1,4.47-.07,9.49-.51,0-4.87-.18-11.18-.55-18.95,3.67-.08,6.2.14,7.58.66.89.34,1.82,1.08,2.81,2.23,1.59,3.02,2.3,9.6,2.15,19.73,1.38.13,4.52.29,9.41.47.13-.31.08-1.84-.16-4.57-.21-4.71-.64-9.09-1.29-13.12-.57-6.9-2.28-10.89-5.12-11.95l-.23-.08.04-.16c3.02-.78,5-2.45,5.94-5ZM210.6,35.01c-.44.7-.68,1.09-.7,1.17-1.15,1.02-3.85,1.26-8.12.74l-.23-.23c-.44-6.51-.73-11.9-.86-16.17,2.45-.83,4.78-.98,6.99-.43l.23.12c3.2,1.2,4.1,6.13,2.7,14.8Z"/>
      </g>
      <path class="cls-4" d="M16.57,38.71c13.3.2,14.78.55,21.02-.03,4.81-.45,10.41-4.66,10.41-11.6,0-11.51-11.8-15.07-21.51-15.07-8.28,0-14.21,1.76-19.49,4.45"/>
      <path class="cls-5" d="M19,24L5.18,6l-2.18,15.84,16,2.16Z"/>
    </g>
  </g>
</svg>