<svg width="100" height="50" viewBox="0 0 100 50" fill="none" xmlns="http://www.w3.org/2000/svg">
<path d="M6.44922 8.05469C6.89193 8.11979 7.28255 8.16536 7.62109 8.19141C7.97266 8.21745 8.26562 8.24349 8.5 8.26953C8.77344 8.29557 9.00781 8.30859 9.20312 8.30859H9.96484C10.4727 8.30859 11.3125 8.28906 12.4844 8.25C12.1979 8.34115 11.957 8.47135 11.7617 8.64062C11.5794 8.8099 11.4297 8.98568 11.3125 9.16797C11.1693 9.3763 11.0651 9.59115 11 9.8125C10.9219 10.0859 10.8503 10.4505 10.7852 10.9062C10.7201 11.3099 10.6549 11.8372 10.5898 12.4883C10.5378 13.1393 10.4857 13.9531 10.4336 14.9297C10.9935 14.2917 11.4818 13.7253 11.8984 13.2305C12.3281 12.7357 12.6992 12.2995 13.0117 11.9219C13.3242 11.5443 13.5846 11.2188 13.793 10.9453C14.0143 10.6719 14.1966 10.4375 14.3398 10.2422C14.6784 9.79948 14.8737 9.5 14.9258 9.34375C14.9388 9.2526 14.9323 9.14193 14.9062 9.01172C14.8802 8.90755 14.8411 8.78385 14.7891 8.64062C14.737 8.48438 14.6589 8.3151 14.5547 8.13281C15.0755 8.15885 15.5182 8.17839 15.8828 8.19141C16.2604 8.20443 16.5729 8.21745 16.8203 8.23047C17.1068 8.24349 17.3411 8.25 17.5234 8.25H18.3438C18.6432 8.25 19.0339 8.25 19.5156 8.25C19.9974 8.23698 20.6029 8.22396 21.332 8.21094C20.8503 8.32812 20.3945 8.48438 19.9648 8.67969C19.5352 8.875 19.151 9.0638 18.8125 9.24609C18.4219 9.46745 18.0573 9.69531 17.7188 9.92969C17.3802 10.1901 17.0026 10.4961 16.5859 10.8477C16.2344 11.1471 15.8242 11.5182 15.3555 11.9609C14.8867 12.3906 14.3789 12.8919 13.832 13.4648C14.418 14.6107 14.9258 15.5547 15.3555 16.2969C15.7982 17.026 16.1693 17.612 16.4688 18.0547C16.8073 18.5755 17.0938 18.9727 17.3281 19.2461C17.5625 19.4935 17.8359 19.7474 18.1484 20.0078C18.4089 20.2292 18.7344 20.4766 19.125 20.75C19.5156 21.0104 19.9648 21.2643 20.4727 21.5117L14.9062 21.7852C14.9844 21.681 15.0299 21.5573 15.043 21.4141C15.069 21.2578 15.082 21.1146 15.082 20.9844C15.082 20.8411 15.069 20.6849 15.043 20.5156C14.9909 20.3073 14.8542 19.9688 14.6328 19.5C14.4505 19.0964 14.1706 18.5299 13.793 17.8008C13.4154 17.0586 12.8945 16.082 12.2305 14.8711L10.5703 16.6094C10.5052 17.026 10.4727 17.4036 10.4727 17.7422C10.4727 18.0807 10.4857 18.3607 10.5117 18.582C10.5508 18.8555 10.6029 19.0898 10.668 19.2852C10.7461 19.4805 10.8568 19.7018 11 19.9492C11.1172 20.1706 11.2734 20.431 11.4688 20.7305C11.6641 21.0299 11.9115 21.362 12.2109 21.7266C11.9115 21.6484 11.612 21.5964 11.3125 21.5703C11.013 21.5312 10.7396 21.5052 10.4922 21.4922C10.2057 21.4792 9.93229 21.4857 9.67188 21.5117C9.39844 21.5378 9.07943 21.5768 8.71484 21.6289C8.40234 21.681 8.01823 21.7461 7.5625 21.8242C7.10677 21.9023 6.58594 22 6 22.1172C6.28646 21.9479 6.51432 21.7656 6.68359 21.5703C6.85286 21.375 6.98958 21.1862 7.09375 21.0039C7.21094 20.7956 7.28906 20.5938 7.32812 20.3984C7.35417 20.2292 7.3737 19.8646 7.38672 19.3047C7.41276 18.7448 7.42578 18.0938 7.42578 17.3516C7.4388 16.5964 7.4388 15.8021 7.42578 14.9688C7.41276 14.1354 7.39974 13.3542 7.38672 12.625C7.3737 11.8958 7.35417 11.2773 7.32812 10.7695C7.3151 10.2487 7.30208 9.92969 7.28906 9.8125C7.25 9.63021 7.19792 9.4349 7.13281 9.22656C7.06771 9.04427 6.97656 8.85547 6.85938 8.66016C6.75521 8.45182 6.61849 8.25 6.44922 8.05469ZM19.125 13.2695L22.7188 13.3086C22.5104 14.1029 22.3542 14.7799 22.25 15.3398C22.1589 15.8997 22.1003 16.3685 22.0742 16.7461C22.0221 17.1758 22.0091 17.5404 22.0352 17.8398C22.0742 18.1133 22.1393 18.4062 22.2305 18.7188C22.3086 18.9792 22.4258 19.2786 22.582 19.6172C22.7383 19.9557 22.9466 20.2943 23.207 20.6328C23.0508 20.5807 22.8815 20.5417 22.6992 20.5156C22.5169 20.4896 22.3477 20.4701 22.1914 20.457C22.0091 20.444 21.8268 20.444 21.6445 20.457C21.4622 20.4701 21.2604 20.4896 21.0391 20.5156C20.8568 20.5417 20.6354 20.5742 20.375 20.6133C20.1146 20.6523 19.8411 20.7044 19.5547 20.7695C19.75 20.1836 19.8997 19.6758 20.0039 19.2461C20.1211 18.8164 20.2057 18.4583 20.2578 18.1719C20.3099 17.8333 20.3424 17.5599 20.3555 17.3516C20.3555 17.0911 20.3555 16.7982 20.3555 16.4727C20.3555 16.1341 20.3555 15.8086 20.3555 15.4961C20.3555 15.1836 20.349 14.9102 20.3359 14.6758C20.3229 14.4284 20.2969 14.2721 20.2578 14.207L20.0625 14.0117C19.9844 13.9466 19.8672 13.8555 19.7109 13.7383C19.5677 13.6081 19.3724 13.4518 19.125 13.2695ZM20.5117 10.2617C20.7852 10.1185 21.0586 10.0794 21.332 10.1445C21.6185 10.2096 21.8398 10.3333 21.9961 10.5156C22.1523 10.6979 22.2044 10.9128 22.1523 11.1602C22.1133 11.4076 21.9049 11.6484 21.5273 11.8828C21.1497 12.1042 20.8177 12.1823 20.5312 12.1172C20.2448 12.0521 20.043 11.9154 19.9258 11.707C19.8086 11.4987 19.7891 11.2578 19.8672 10.9844C19.9453 10.6979 20.1602 10.457 20.5117 10.2617ZM24.5156 19.8516C24.6068 19.4219 24.6719 19.0443 24.7109 18.7188C24.763 18.3802 24.8021 18.1003 24.8281 17.8789C24.8542 17.6185 24.8672 17.3971 24.8672 17.2148C24.8542 16.9935 24.8411 16.7331 24.8281 16.4336C24.8281 16.1211 24.8151 15.8151 24.7891 15.5156C24.776 15.2031 24.7565 14.9297 24.7305 14.6953C24.7044 14.4479 24.6719 14.2721 24.6328 14.168C24.5807 14.0638 24.5091 13.9531 24.418 13.8359C24.2357 13.6146 23.9688 13.3997 23.6172 13.1914C23.9167 13.1263 24.1706 13.0742 24.3789 13.0352C24.6003 12.9831 24.7826 12.9375 24.9258 12.8984C25.082 12.8464 25.2188 12.8008 25.3359 12.7617C25.4401 12.7227 25.5638 12.6836 25.707 12.6445C25.8242 12.6185 25.9674 12.5859 26.1367 12.5469C26.306 12.5078 26.5013 12.4622 26.7227 12.4102L26.6641 14.1875C27.0807 13.6927 27.5039 13.3216 27.9336 13.0742C28.3633 12.8268 28.7669 12.651 29.1445 12.5469C29.5742 12.4167 29.9974 12.3516 30.4141 12.3516C30.9349 12.3776 31.4167 12.4622 31.8594 12.6055C32.3151 12.7487 32.7057 12.918 33.0312 13.1133C33.3698 13.2956 33.6432 13.4909 33.8516 13.6992C34.0599 13.9076 34.1836 14.0898 34.2227 14.2461C34.3789 14.7539 34.418 15.2227 34.3398 15.6523C34.2617 16.069 34.1576 16.4792 34.0273 16.8828C33.9102 17.2734 33.806 17.6641 33.7148 18.0547C33.6367 18.4453 33.6693 18.8685 33.8125 19.3242C33.8646 19.4414 33.9167 19.5586 33.9688 19.6758C34.0208 19.7799 34.0859 19.8841 34.1641 19.9883C34.2422 20.0924 34.3333 20.1771 34.4375 20.2422C34.2943 20.2292 34.151 20.2227 34.0078 20.2227C33.8646 20.2096 33.7344 20.1966 33.6172 20.1836C33.474 20.1706 33.3438 20.1576 33.2266 20.1445C33.0964 20.1315 32.9206 20.125 32.6992 20.125C32.3216 20.125 31.7357 20.1445 30.9414 20.1836C31.0586 19.9102 31.1497 19.6823 31.2148 19.5C31.293 19.3047 31.3581 19.1484 31.4102 19.0312C31.4622 18.888 31.5013 18.7773 31.5273 18.6992C31.6836 18.3216 31.7747 17.8919 31.8008 17.4102C31.8398 16.9284 31.8073 16.4401 31.7031 15.9453C31.6641 15.776 31.599 15.5742 31.5078 15.3398C31.4167 15.1055 31.293 14.8776 31.1367 14.6562C30.9935 14.4349 30.8177 14.2461 30.6094 14.0898C30.4141 13.9336 30.1862 13.8424 29.9258 13.8164C29.6654 13.7904 29.3724 13.8555 29.0469 14.0117C28.7344 14.168 28.3958 14.4544 28.0312 14.8711C27.7578 15.2227 27.543 15.6523 27.3867 16.1602C27.2435 16.5898 27.1458 17.1302 27.0938 17.7812C27.0417 18.4193 27.1198 19.168 27.3281 20.0273C27.1458 20.0013 26.9766 19.9883 26.8203 19.9883C26.6641 19.9753 26.5339 19.9622 26.4297 19.9492C26.2995 19.9362 26.1823 19.9232 26.0781 19.9102C25.9609 19.9102 25.8307 19.9036 25.6875 19.8906C25.5573 19.8906 25.3945 19.8906 25.1992 19.8906C25.0039 19.8776 24.776 19.8646 24.5156 19.8516ZM44.8477 13.7188C44.8086 13.4583 44.776 13.2435 44.75 13.0742C44.724 12.8919 44.6979 12.7487 44.6719 12.6445C44.6458 12.5143 44.6263 12.4167 44.6133 12.3516C44.5872 12.2865 44.5547 12.2148 44.5156 12.1367C44.4896 12.0716 44.444 11.9935 44.3789 11.9023C44.3268 11.8112 44.2617 11.707 44.1836 11.5898C44.3529 11.6419 44.5221 11.6745 44.6914 11.6875C44.8737 11.7005 45.043 11.7135 45.1992 11.7266C45.3685 11.7396 45.5443 11.7396 45.7266 11.7266C45.9089 11.7266 46.1172 11.7201 46.3516 11.707C46.5599 11.694 46.8073 11.6875 47.0938 11.6875C47.3932 11.6745 47.7318 11.6549 48.1094 11.6289C47.888 11.681 47.6992 11.7721 47.543 11.9023C47.3997 12.0195 47.276 12.1497 47.1719 12.293C47.0547 12.4492 46.957 12.6185 46.8789 12.8008C46.8138 12.9701 46.7747 13.2956 46.7617 13.7773C46.7487 14.2461 46.7487 14.806 46.7617 15.457C46.7747 16.0951 46.7878 16.7852 46.8008 17.5273C46.8268 18.2695 46.8398 18.9792 46.8398 19.6562C46.8529 20.3333 46.8529 20.9518 46.8398 21.5117C46.8268 22.0586 46.7943 22.4622 46.7422 22.7227C46.5599 23.543 46.2214 24.207 45.7266 24.7148C45.2318 25.2357 44.5807 25.5156 43.7734 25.5547C42.7969 25.5938 42.0221 25.5026 41.4492 25.2812C40.8893 25.0599 40.4531 24.7865 40.1406 24.4609C39.8281 24.1484 39.5938 23.8294 39.4375 23.5039C39.2812 23.1784 39.1185 22.931 38.9492 22.7617C38.793 22.6185 38.6367 22.4818 38.4805 22.3516C38.3372 22.2474 38.1875 22.1432 38.0312 22.0391C37.888 21.9349 37.7448 21.8698 37.6016 21.8438C37.9792 21.8568 38.3177 21.8633 38.6172 21.8633C38.9167 21.8633 39.1706 21.8633 39.3789 21.8633C39.6133 21.8633 39.8216 21.8568 40.0039 21.8438H40.6289H42.4062C42.1458 21.9219 41.9505 22.0065 41.8203 22.0977C41.6901 22.2018 41.599 22.306 41.5469 22.4102C41.4948 22.5273 41.4688 22.6445 41.4688 22.7617C41.5208 23.0742 41.6901 23.3021 41.9766 23.4453C42.263 23.5885 42.6536 23.6732 43.1484 23.6992C43.6302 23.7253 43.9622 23.7122 44.1445 23.6602C44.3268 23.6211 44.4701 23.543 44.5742 23.4258C44.7826 23.1133 44.9583 22.7096 45.1016 22.2148C45.2057 21.7982 45.2773 21.2578 45.3164 20.5938C45.3685 19.9167 45.3099 19.0898 45.1406 18.1133C44.724 18.6862 44.2422 19.1159 43.6953 19.4023C43.1484 19.6888 42.6276 19.8971 42.1328 20.0273C41.5469 20.1706 40.9544 20.2422 40.3555 20.2422C38.7799 20.1771 37.6016 19.8125 36.8203 19.1484C36.0391 18.4844 35.681 17.5924 35.7461 16.4727C35.7852 15.9128 35.9544 15.3529 36.2539 14.793C36.5664 14.2331 36.9701 13.7318 37.4648 13.2891C37.9727 12.8464 38.5521 12.4948 39.2031 12.2344C39.8542 11.974 40.5312 11.8633 41.2344 11.9023C41.7682 11.9544 42.2695 12.0521 42.7383 12.1953C43.1419 12.3255 43.5391 12.5078 43.9297 12.7422C44.3333 12.9766 44.6393 13.3021 44.8477 13.7188ZM38.6367 15.6719C38.5586 16.1797 38.5911 16.6549 38.7344 17.0977C38.8906 17.5404 39.1055 17.9245 39.3789 18.25C39.6523 18.5625 39.9583 18.8099 40.2969 18.9922C40.6354 19.1615 40.9544 19.2396 41.2539 19.2266C41.8789 19.2135 42.4193 18.9336 42.875 18.3867C43.3307 17.8268 43.6042 16.9935 43.6953 15.8867C43.7344 15.3398 43.6628 14.8711 43.4805 14.4805C43.3112 14.0768 43.0964 13.7513 42.8359 13.5039C42.5755 13.2565 42.3021 13.0807 42.0156 12.9766C41.7292 12.8724 41.5013 12.8268 41.332 12.8398C41.0977 12.8659 40.8372 12.9375 40.5508 13.0547C40.2773 13.1589 40.0104 13.3216 39.75 13.543C39.4896 13.7513 39.2552 14.0312 39.0469 14.3828C38.8516 14.7344 38.7148 15.1641 38.6367 15.6719ZM54.3008 7.99609C54.7174 8.00911 55.082 8.01562 55.3945 8.01562C55.707 8.0026 55.9609 7.99609 56.1562 7.99609H56.7227C56.8659 7.98307 57.0417 7.97656 57.25 7.97656C57.4323 7.97656 57.6536 7.97656 57.9141 7.97656C58.1745 7.97656 58.474 7.98307 58.8125 7.99609C58.9167 8.36068 59.0339 8.71875 59.1641 9.07031C59.3073 9.40885 59.431 9.71484 59.5352 9.98828C59.6654 10.3138 59.7956 10.6198 59.9258 10.9062C60.056 11.1927 60.2122 11.5378 60.3945 11.9414C60.5508 12.2799 60.7396 12.6966 60.9609 13.1914C61.1823 13.6732 61.4427 14.2266 61.7422 14.8516C61.8854 14.4479 62.0156 14.0768 62.1328 13.7383C62.263 13.3997 62.3737 13.1068 62.4648 12.8594C62.569 12.5729 62.6536 12.3125 62.7188 12.0781C62.7839 11.8438 62.8555 11.5573 62.9336 11.2188C62.9987 10.9323 63.0703 10.5872 63.1484 10.1836C63.2396 9.77995 63.3307 9.3112 63.4219 8.77734C63.7995 8.77734 64.138 8.77734 64.4375 8.77734C64.737 8.77734 64.9974 8.77083 65.2188 8.75781C65.4661 8.75781 65.6875 8.7513 65.8828 8.73828C66.0911 8.73828 66.3711 8.72526 66.7227 8.69922C67.0221 8.67318 67.4193 8.65365 67.9141 8.64062C68.4219 8.61458 69.0469 8.58203 69.7891 8.54297C69.5156 8.73828 69.2943 8.93359 69.125 9.12891C68.9688 9.3112 68.8451 9.47396 68.7539 9.61719C68.6497 9.78646 68.5846 9.94922 68.5586 10.1055C68.5326 10.2357 68.5065 10.5352 68.4805 11.0039C68.4674 11.4727 68.4479 12.0326 68.4219 12.6836C68.4089 13.3216 68.3958 14.0052 68.3828 14.7344C68.3828 15.4635 68.3893 16.1536 68.4023 16.8047C68.4154 17.4557 68.4349 18.0221 68.4609 18.5039C68.5 18.9727 68.5521 19.2721 68.6172 19.4023C68.7083 19.5586 68.832 19.7409 68.9883 19.9492C69.1315 20.1315 69.3138 20.3398 69.5352 20.5742C69.7695 20.8086 70.0755 21.069 70.4531 21.3555C69.8542 21.3815 69.3529 21.401 68.9492 21.4141C68.5586 21.4271 68.2331 21.4401 67.9727 21.4531C67.6732 21.4661 67.4323 21.4727 67.25 21.4727C67.0547 21.4727 66.7878 21.4792 66.4492 21.4922C66.1497 21.5052 65.7526 21.5247 65.2578 21.5508C64.763 21.5638 64.125 21.5898 63.3438 21.6289C63.526 21.4206 63.6953 21.2122 63.8516 21.0039C64.0078 20.7956 64.138 20.6068 64.2422 20.4375C64.3724 20.2422 64.4831 20.0534 64.5742 19.8711C64.6654 19.6237 64.737 19.1745 64.7891 18.5234C64.8411 17.9635 64.8802 17.1628 64.9062 16.1211C64.9323 15.0664 64.9323 13.6536 64.9062 11.8828C64.6589 12.2865 64.4375 12.6901 64.2422 13.0938C64.0599 13.4844 63.8971 13.8424 63.7539 14.168C63.5977 14.5456 63.4544 14.9102 63.3242 15.2617C63.194 15.6263 63.0573 16.0299 62.9141 16.4727C62.7839 16.8503 62.6276 17.2995 62.4453 17.8203C62.276 18.3411 62.0807 18.9141 61.8594 19.5391L61.1172 19.5781C61.013 19.0573 60.9089 18.5885 60.8047 18.1719C60.7005 17.7422 60.5964 17.3776 60.4922 17.0781C60.375 16.7266 60.2578 16.4141 60.1406 16.1406C60.0104 15.8672 59.8672 15.5612 59.7109 15.2227C59.5677 14.9362 59.3919 14.5977 59.1836 14.207C58.9883 13.8164 58.7604 13.3802 58.5 12.8984C58.3698 14.2266 58.2917 15.3073 58.2656 16.1406C58.2396 16.9609 58.2396 17.599 58.2656 18.0547C58.2917 18.6016 58.3307 18.9987 58.3828 19.2461C58.4609 19.4674 58.5846 19.7148 58.7539 19.9883C58.8971 20.2227 59.0924 20.5026 59.3398 20.8281C59.6003 21.1406 59.9323 21.4922 60.3359 21.8828C60.0495 21.8828 59.75 21.8828 59.4375 21.8828C59.125 21.8828 58.8385 21.8893 58.5781 21.9023C58.2656 21.9154 57.9596 21.9219 57.6602 21.9219C57.3477 21.9349 56.9831 21.9544 56.5664 21.9805C56.2018 22.0065 55.7656 22.0326 55.2578 22.0586C54.75 22.0846 54.1641 22.1302 53.5 22.1953C53.7865 22.013 54.0208 21.8372 54.2031 21.668C54.3854 21.4857 54.5286 21.3229 54.6328 21.1797C54.763 21.0104 54.8607 20.8411 54.9258 20.6719C54.9648 20.5677 54.9974 20.3398 55.0234 19.9883C55.0625 19.6367 55.0951 19.207 55.1211 18.6992C55.1602 18.1914 55.1862 17.625 55.1992 17C55.2253 16.375 55.2448 15.7435 55.2578 15.1055C55.2839 14.4544 55.3034 13.8229 55.3164 13.2109C55.3294 12.5859 55.3359 12.026 55.3359 11.5312C55.349 11.0234 55.3555 10.6003 55.3555 10.2617C55.3555 9.92318 55.3555 9.70833 55.3555 9.61719C55.3164 9.42188 55.2578 9.22656 55.1797 9.03125C55.1146 8.86198 55.0104 8.6862 54.8672 8.50391C54.724 8.32161 54.5352 8.15234 54.3008 7.99609ZM75.4922 13.25C75.8307 13.25 76.1823 13.3151 76.5469 13.4453C76.9115 13.5625 77.263 13.7188 77.6016 13.9141C77.9401 14.0964 78.2461 14.2982 78.5195 14.5195C78.806 14.7279 79.0404 14.9297 79.2227 15.125C79.5482 15.4766 79.7695 15.9518 79.8867 16.5508C80.0169 17.1367 80.043 17.7422 79.9648 18.3672C79.8867 18.9792 79.7044 19.5586 79.418 20.1055C79.1315 20.6523 78.7344 21.056 78.2266 21.3164C77.862 21.4987 77.5039 21.6419 77.1523 21.7461C76.8008 21.8503 76.4622 21.9284 76.1367 21.9805C75.8112 22.0326 75.5052 22.0586 75.2188 22.0586C74.9323 22.0586 74.6849 22.0521 74.4766 22.0391C74.0859 22.013 73.6758 21.8763 73.2461 21.6289C72.8294 21.3815 72.4323 21.0755 72.0547 20.7109C71.6901 20.3464 71.3776 19.9492 71.1172 19.5195C70.8568 19.0768 70.7005 18.6602 70.6484 18.2695C70.5703 17.7357 70.5573 17.1758 70.6094 16.5898C70.6615 16.0039 70.8503 15.4635 71.1758 14.9688C71.5143 14.474 72.0221 14.0638 72.6992 13.7383C73.3893 13.4128 74.3203 13.25 75.4922 13.25ZM74.8477 20.8281C74.9909 20.8542 75.1862 20.8216 75.4336 20.7305C75.681 20.6263 75.9219 20.4635 76.1562 20.2422C76.4036 20.0208 76.6185 19.7409 76.8008 19.4023C76.9961 19.0508 77.1133 18.6276 77.1523 18.1328C77.1914 17.651 77.1914 17.2083 77.1523 16.8047C77.1263 16.401 77.0677 16.0495 76.9766 15.75C76.8854 15.4375 76.7812 15.1836 76.6641 14.9883C76.5469 14.793 76.4232 14.6562 76.293 14.5781C76.0716 14.4609 75.8047 14.3698 75.4922 14.3047C75.1797 14.2266 74.9128 14.2396 74.6914 14.3438C74.5872 14.3958 74.457 14.5065 74.3008 14.6758C74.1445 14.8451 73.9883 15.0599 73.832 15.3203C73.6758 15.5677 73.5326 15.8542 73.4023 16.1797C73.2852 16.5052 73.2005 16.8438 73.1484 17.1953C73.0964 17.5469 73.0833 17.9245 73.1094 18.3281C73.1484 18.7318 73.2331 19.1159 73.3633 19.4805C73.4935 19.832 73.6758 20.138 73.9102 20.3984C74.1576 20.6458 74.4701 20.7891 74.8477 20.8281ZM81.3516 22.5469C81.4818 22.3516 81.5859 22.1693 81.6641 22C81.7422 21.8307 81.8073 21.6875 81.8594 21.5703C81.9115 21.4271 81.9505 21.2969 81.9766 21.1797C81.9896 21.1016 81.9961 20.8737 81.9961 20.4961C81.9961 20.1185 81.9831 19.6432 81.957 19.0703C81.944 18.4974 81.9245 17.8529 81.8984 17.1367C81.8854 16.4206 81.8594 15.6914 81.8203 14.9492C81.7943 14.207 81.7617 13.4844 81.7227 12.7812C81.6966 12.0781 81.6706 11.4466 81.6445 10.8867C81.6185 10.3138 81.5924 9.84505 81.5664 9.48047C81.5404 9.11589 81.5208 8.90755 81.5078 8.85547C81.4818 8.77734 81.4362 8.69922 81.3711 8.62109C81.2409 8.46484 81.0195 8.3151 80.707 8.17188C81.3711 8.0026 81.8789 7.86589 82.2305 7.76172C82.4388 7.70964 82.6211 7.65755 82.7773 7.60547C82.9206 7.55339 83.0638 7.5013 83.207 7.44922C83.3242 7.39714 83.4544 7.33854 83.5977 7.27344C83.7409 7.19531 83.8711 7.11068 83.9883 7.01953C83.9232 7.39714 83.8711 7.76172 83.832 8.11328C83.793 8.46484 83.7604 8.79036 83.7344 9.08984C83.7083 9.42839 83.6953 9.75391 83.6953 10.0664C83.6302 10.7044 83.5911 11.401 83.5781 12.1562C83.5781 12.8984 83.5846 13.6536 83.5977 14.4219C83.6107 15.1901 83.6367 15.9388 83.6758 16.668C83.7148 17.3971 83.7539 18.0612 83.793 18.6602C83.8451 19.2461 83.8906 19.7474 83.9297 20.1641C83.9818 20.5677 84.0208 20.8281 84.0469 20.9453C84.099 21.1406 84.151 21.3294 84.2031 21.5117C84.2552 21.668 84.3138 21.8307 84.3789 22C84.444 22.1823 84.5221 22.3255 84.6133 22.4297H82.7188C82.5495 22.4297 82.3867 22.4362 82.2305 22.4492C82.0872 22.4622 81.9375 22.4753 81.7812 22.4883C81.625 22.5013 81.4818 22.5208 81.3516 22.5469ZM90.3945 18.8555C90.7591 18.8555 91.0977 18.8164 91.4102 18.7383C91.6706 18.6732 91.918 18.569 92.1523 18.4258C92.3997 18.2695 92.5625 18.0417 92.6406 17.7422C92.901 17.7943 93.1224 17.8398 93.3047 17.8789C93.487 17.9049 93.6432 17.931 93.7734 17.957C93.9167 17.9961 94.0404 18.0221 94.1445 18.0352C94.2487 18.0612 94.3724 18.0872 94.5156 18.1133C94.6458 18.1393 94.8021 18.1719 94.9844 18.2109C95.1797 18.237 95.4076 18.276 95.668 18.3281C95.4727 18.3021 95.2708 18.3216 95.0625 18.3867C94.8672 18.4518 94.6784 18.5234 94.4961 18.6016C94.2878 18.6927 94.0924 18.8034 93.9102 18.9336C93.793 19.0117 93.6562 19.1289 93.5 19.2852C93.3568 19.4414 93.1484 19.5911 92.875 19.7344C92.6016 19.8776 92.237 20.0013 91.7812 20.1055C91.3385 20.1966 90.7656 20.2292 90.0625 20.2031C89.2161 20.1771 88.5065 20.0273 87.9336 19.7539C87.3607 19.4674 86.8984 19.1224 86.5469 18.7188C86.1953 18.3021 85.9414 17.8529 85.7852 17.3711C85.6289 16.8893 85.5443 16.4401 85.5312 16.0234C85.5182 15.6068 85.6419 15.1706 85.9023 14.7148C86.1628 14.2591 86.5273 13.8424 86.9961 13.4648C87.4779 13.0872 88.0573 12.7812 88.7344 12.5469C89.4115 12.2995 90.1536 12.1758 90.9609 12.1758C91.4297 12.1758 91.8594 12.2344 92.25 12.3516C92.6536 12.4557 93.0182 12.599 93.3438 12.7812C93.6823 12.9635 93.9753 13.1719 94.2227 13.4062C94.4701 13.6276 94.6784 13.8555 94.8477 14.0898C95.0169 14.3372 95.1602 14.5977 95.2773 14.8711C95.3815 15.1055 95.4661 15.3724 95.5312 15.6719C95.5964 15.9714 95.6159 16.2773 95.5898 16.5898C94.6003 16.6159 93.7995 16.6354 93.1875 16.6484C92.5885 16.6615 92.1198 16.668 91.7812 16.668H90.9023H90.2383C90.0039 16.668 89.6979 16.6745 89.3203 16.6875C88.9427 16.7005 88.4805 16.7201 87.9336 16.7461C87.9987 17.2669 88.1615 17.6706 88.4219 17.957C88.6953 18.2305 88.9818 18.4388 89.2812 18.582C89.6198 18.7383 89.9909 18.8294 90.3945 18.8555ZM88.6367 15.3398C89.0534 15.3659 89.3984 15.3854 89.6719 15.3984C89.9583 15.4115 90.1927 15.4245 90.375 15.4375C90.5703 15.4505 90.7266 15.457 90.8438 15.457H91.332C91.6576 15.457 92.263 15.4375 93.1484 15.3984C93.1094 14.8255 92.9857 14.3893 92.7773 14.0898C92.582 13.7904 92.3737 13.569 92.1523 13.4258C91.8919 13.2695 91.6055 13.1784 91.293 13.1523C90.4466 13.1654 89.8151 13.3411 89.3984 13.6797C88.9948 14.0182 88.7409 14.5716 88.6367 15.3398Z" fill="black"/>
<path d="M97.6194 37.9824C97.8352 37.4741 97.598 36.887 97.0896 36.6712L88.8052 33.1544C88.2968 32.9386 87.7097 33.1758 87.4939 33.6841C87.2781 34.1925 87.5153 34.7796 88.0237 34.9954L95.3876 38.1214L92.2616 45.4854C92.0458 45.9938 92.283 46.5808 92.7913 46.7966C93.2997 47.0124 93.8868 46.7753 94.1026 46.2669L97.6194 37.9824ZM47.8716 28.6241C48.3127 34.0195 51.3151 37.539 55.5685 39.6784C59.7649 41.7892 65.1952 42.5754 70.6838 42.6417C81.6598 42.7743 93.3421 40.0263 97.0735 38.5189L96.3243 36.6645C92.8568 38.0653 81.4396 40.7715 70.708 40.6419C65.3428 40.577 60.2671 39.803 56.4672 37.8917C52.7242 36.009 50.2397 33.0445 49.8649 28.4612L47.8716 28.6241Z" fill="black"/>
</svg>
